<?xml version="1.0" ?><!DOCTYPE svg  PUBLIC '-//W3C//DTD SVG 1.1//EN'  'http://www.w3.org/Graphics/SVG/1.1/DTD/svg11.dtd'><svg fill='#d22856' enable-background="new -0.7 -0.7 30 30" height="30px" version="1.1" viewBox="-0.7 -0.7 30 30" width="30px" xml:space="preserve" xmlns="http://www.w3.org/2000/svg" xmlns:xlink="http://www.w3.org/1999/xlink"><defs/><path clip-rule="evenodd" d="M26.7,15.9c-0.9,0-1.7-0.8-1.7-1.7c0-0.9,0.8-1.7,1.7-1.7  c0.9,0,1.7,0.8,1.7,1.7C28.4,15.2,27.7,15.9,26.7,15.9z M21.8,24.3c-0.7-0.7-0.7-1.8,0-2.4c0.7-0.7,1.8-0.7,2.4,0  c0.7,0.7,0.7,1.8,0,2.4C23.6,24.9,22.5,24.9,21.8,24.3z M21.8,6.6c-0.7-0.7-0.7-1.8,0-2.4c0.7-0.7,1.8-0.7,2.4,0  c0.7,0.7,0.7,1.8,0,2.4C23.6,7.3,22.5,7.3,21.8,6.6z M14.3,22.3c-4.4,0-8-3.6-8-8c0-4.4,3.6-8,8-8c4.4,0,8,3.6,8,8  C22.3,18.7,18.7,22.3,14.3,22.3z M8.4,14.7c0.2,3.1,2.8,5.6,5.9,5.6s5.7-2.5,5.9-5.6H8.4z M14.2,3.4c-0.9,0-1.7-0.8-1.7-1.7  S13.3,0,14.2,0c0.9,0,1.7,0.8,1.7,1.7S15.2,3.4,14.2,3.4z M4.2,6.6c-0.7-0.7-0.7-1.8,0-2.4c0.7-0.7,1.8-0.7,2.4,0  c0.7,0.7,0.7,1.8,0,2.4S4.8,7.3,4.2,6.6z M1.7,15.9c-0.9,0-1.7-0.8-1.7-1.7c0-0.9,0.8-1.7,1.7-1.7c0.9,0,1.7,0.8,1.7,1.7  C3.4,15.2,2.7,15.9,1.7,15.9z M6.6,21.8c0.7,0.7,0.7,1.8,0,2.4s-1.8,0.7-2.4,0c-0.7-0.7-0.7-1.8,0-2.4C4.8,21.2,5.9,21.2,6.6,21.8z   M14.2,25c0.9,0,1.7,0.8,1.7,1.7s-0.8,1.7-1.7,1.7c-0.9,0-1.7-0.8-1.7-1.7S13.3,25,14.2,25z"  fill-rule="evenodd"/></svg>