<svg width="27" height="27" viewBox="0 0 27 27" fill="none" xmlns="http://www.w3.org/2000/svg">
<path d="M15.6444 13.5065L26.5531 2.58654C26.6947 2.44667 26.8071 2.28009 26.8838 2.09645C26.9605 1.91281 27 1.71577 27 1.51674C27 1.31772 26.9605 1.12068 26.8838 0.937041C26.8071 0.753403 26.6947 0.58682 26.5531 0.446952C26.268 0.165899 25.8837 0.00834432 25.4834 0.00834432C25.0831 0.00834432 24.6988 0.165899 24.4137 0.446952L13.505 11.3669L2.58626 0.446952C2.44641 0.305366 2.27984 0.192953 2.09622 0.11623C1.9126 0.0395068 1.71558 0 1.51658 0C1.31758 0 1.12056 0.0395068 0.936941 0.11623C0.753322 0.192953 0.586757 0.305366 0.446904 0.446952C0.165881 0.73209 0.00834343 1.11638 0.00834343 1.51674C0.00834343 1.91711 0.165881 2.3014 0.446904 2.58654L11.3657 13.5065L0.446904 24.4164C0.305333 24.5562 0.192932 24.7228 0.116217 24.9064C0.0395025 25.0901 0 25.2871 0 25.4861C0 25.6852 0.0395025 25.8822 0.116217 26.0658C0.192932 26.2495 0.305333 26.4161 0.446904 26.5559C0.730723 26.8394 1.11545 26.9987 1.51658 26.9987C1.91771 26.9987 2.30244 26.8394 2.58626 26.5559L13.505 15.6461L24.4137 26.5559C24.698 26.839 25.0823 26.9985 25.4834 27C25.7826 26.9997 26.075 26.9108 26.3237 26.7444C26.5724 26.5781 26.7662 26.3417 26.8806 26.0653C26.9951 25.7888 27.0251 25.4847 26.9668 25.1912C26.9085 24.8977 26.7645 24.6281 26.5531 24.4164L15.6444 13.5065Z" fill="#F25B26"/>
</svg>
