<svg width="47" height="56" fill="none" xmlns="http://www.w3.org/2000/svg"><path d="M39.245 29.74a12.09 12.09 0 0 0 2.127 6.787A12.668 12.668 0 0 0 47 41.063a29.794 29.794 0 0 1-4 7.96c-2.401 3.413-4.905 6.816-8.844 6.904-3.938.09-5.088-2.219-9.526-2.219-4.437 0-5.8 2.15-9.465 2.288-3.663.139-6.686-3.718-9.088-7.111-4.956-6.905-8.752-19.639-3.664-28.2a13.925 13.925 0 0 1 5.024-5.037 14.489 14.489 0 0 1 6.935-1.977c3.724-.069 7.246 2.427 9.526 2.427 2.28 0 6.564-3.009 11.062-2.565 2.084.073 4.121.613 5.954 1.576a13.387 13.387 0 0 1 4.61 3.977c-.275.168-6.31 3.571-6.249 10.653h-.03ZM31.978 8.936C34.16 6.46 35.238 3.247 34.981 0c-3.305.302-6.364 1.82-8.55 4.241-1.862 2.092-3.5 5.445-3.053 8.66 3.247.247 6.555-1.597 8.57-3.945" fill="#fff"/></svg>