<svg width="13" height="12" fill="none" xmlns="http://www.w3.org/2000/svg"><path d="M6.469 12a.782.782 0 0 1-.58-.25C1.958 7.42 1.036 6.44.86 6.17A3.765 3.765 0 0 1 0 3.8a3.723 3.723 0 0 1 .63-2.045A3.921 3.921 0 0 1 2.3.355 4.09 4.09 0 0 1 4.487.035 4.031 4.031 0 0 1 6.51.9 4.08 4.08 0 0 1 9.07 0a4.013 4.013 0 0 1 2.78 1.117A3.733 3.733 0 0 1 13 3.8a3.409 3.409 0 0 1-.923 2.38l-5.038 5.56a.757.757 0 0 1-.57.25V12ZM2.073 5.28c.218.26 2.56 2.84 4.396 4.86l4.478-4.94a1.96 1.96 0 0 0 .539-1.4c0-.618-.254-1.21-.707-1.648A2.461 2.461 0 0 0 9.07 1.47c-.38.003-.756.09-1.097.252-.341.163-.64.398-.873.688a.844.844 0 0 1-.612.28.757.757 0 0 1-.332-.082.729.729 0 0 1-.258-.218 2.43 2.43 0 0 0-.868-.682 2.49 2.49 0 0 0-2.372.132 2.369 2.369 0 0 0-.882.968 2.267 2.267 0 0 0 .296 2.462v.01Z" fill="#D22856"/></svg>