<svg fill="#d22856" height="30" viewBox="-0.7 -0.7 30 30" width="30" xml:space="preserve" xmlns="http://www.w3.org/2000/svg"><path clip-rule="evenodd" d="M26.7 15.9c-.9 0-1.7-.8-1.7-1.7 0-.9.8-1.7 1.7-1.7.9 0 1.7.8 1.7 1.7 0 1-.7 1.7-1.7 1.7zm-4.9 8.4c-.7-.7-.7-1.8 0-2.4.7-.7 1.8-.7 2.4 0 .7.7.7 1.8 0 2.4-.6.6-1.7.6-2.4 0zm0-17.7c-.7-.7-.7-1.8 0-2.4.7-.7 1.8-.7 2.4 0 .7.7.7 1.8 0 2.4-.6.7-1.7.7-2.4 0zm-7.5 15.7c-4.4 0-8-3.6-8-8s3.6-8 8-8 8 3.6 8 8-3.6 8-8 8zm-5.9-7.6c.2 3.1 2.8 5.6 5.9 5.6s5.7-2.5 5.9-5.6H8.4zm5.8-11.3c-.9 0-1.7-.8-1.7-1.7S13.3 0 14.2 0c.9 0 1.7.8 1.7 1.7s-.7 1.7-1.7 1.7zm-10 3.2c-.7-.7-.7-1.8 0-2.4.7-.7 1.8-.7 2.4 0 .7.7.7 1.8 0 2.4s-1.8.7-2.4 0zm-2.5 9.3c-.9 0-1.7-.8-1.7-1.7 0-.9.8-1.7 1.7-1.7.9 0 1.7.8 1.7 1.7 0 1-.7 1.7-1.7 1.7zm4.9 5.9c.7.7.7 1.8 0 2.4s-1.8.7-2.4 0c-.7-.7-.7-1.8 0-2.4.6-.6 1.7-.6 2.4 0zm7.6 3.2c.9 0 1.7.8 1.7 1.7s-.8 1.7-1.7 1.7c-.9 0-1.7-.8-1.7-1.7s.8-1.7 1.7-1.7z" fill-rule="evenodd"/></svg>