<svg width="36" height="36" viewBox="0 0 36 36" fill="none" xmlns="http://www.w3.org/2000/svg">
<path d="M18 0C21.5601 0 25.0402 1.05568 28.0003 3.03355C30.9604 5.01141 33.2675 7.82263 34.6298 11.1117C35.9922 14.4008 36.3487 18.02 35.6541 21.5116C34.9596 25.0033 33.2453 28.2106 30.7279 30.7279C28.2106 33.2453 25.0033 34.9596 21.5116 35.6541C18.02 36.3487 14.4008 35.9922 11.1117 34.6298C7.82263 33.2675 5.01141 30.9604 3.03355 28.0003C1.05568 25.0402 0 21.5601 0 18C0 13.2261 1.89642 8.64773 5.27208 5.27208C8.64773 1.89642 13.2261 0 18 0V0Z" fill="white"/>
<path d="M18.0102 10C19.5915 10.002 21.1369 10.4727 22.4509 11.3525C23.7649 12.2323 24.7887 13.4818 25.393 14.9432C25.9972 16.4046 26.1548 18.0123 25.8458 19.5632C25.5368 21.1141 24.7751 22.5386 23.6568 23.6568C22.5386 24.7751 21.1141 25.5368 19.5632 25.8458C18.0123 26.1548 16.4046 25.9972 14.9432 25.393C13.4818 24.7887 12.2323 23.7649 11.3525 22.4509C10.4727 21.1369 10.002 19.5915 10 18.0102C10 15.8857 10.8439 13.8483 12.3461 12.3461C13.8483 10.8439 15.8857 10 18.0102 10Z" fill="#D22856"/>
</svg>
