<svg width="54" height="54" viewBox="0 0 54 54" fill="none" xmlns="http://www.w3.org/2000/svg">
<circle opacity="0.1" cx="27" cy="27" r="25.5" fill="white" stroke="#283645" stroke-width="3"/>
<path d="M23.8336 33.8089C23.6463 33.9278 23.4247 33.9941 23.1963 33.9996C22.9678 34.0051 22.7426 33.9495 22.5487 33.8398C22.3548 33.7301 22.2007 33.571 22.1056 33.3824C22.0106 33.1938 21.9787 32.984 22.014 32.779V22.221C21.9787 22.016 22.0106 21.8062 22.1056 21.6176C22.2007 21.429 22.3548 21.2699 22.5487 21.1602C22.7426 21.0505 22.9678 20.9949 23.1963 21.0004C23.4247 21.0059 23.6463 21.0722 23.8336 21.1911L36.2333 26.6928C37.2556 27.1382 37.2556 27.8618 36.2333 28.3072L23.8336 33.8089Z" fill="#D22856"/>
</svg>
